<svg width="300" height="80" viewBox="0 0 300 80" xmlns="http://www.w3.org/2000/svg">
  <defs>
    <linearGradient id="gr" x1="0%" y1="0%" x2="100%" y2="0%">
      <stop offset="0%" stop-color="#06b6d4"/>
      <stop offset="50%" stop-color="#8b5cf6"/>
      <stop offset="100%" stop-color="#ec4899"/>
    </linearGradient>
  </defs>

  <!-- Dot accent -->
  <circle cx="12" cy="10" r="3" fill="url(#gr)"/>

  <!-- H -->
  <path d="M12,58 C12,48 12,25 12,15" fill="none" stroke="#0f172a" stroke-width="2.5" stroke-linecap="round"/>
  <path d="M12,38 C18,35 24,35 30,38" fill="none" stroke="#0f172a" stroke-width="2.5" stroke-linecap="round"/>
  <path d="M30,58 C30,48 30,25 30,15" fill="none" stroke="#0f172a" stroke-width="2.5" stroke-linecap="round"/>

  <!-- o -->
  <ellipse cx="47" cy="46" rx="10" ry="12" fill="none" stroke="#0f172a" stroke-width="2.5"/>

  <!-- u -->
  <path d="M62,34 C62,34 62,52 62,56 C62,62 67,64 71,60 C75,56 75,34 75,34" fill="none" stroke="#0f172a" stroke-width="2.5" stroke-linecap="round"/>

  <!-- c -->
  <path d="M98,39 C93,35 84,37 82,46 C80,55 84,60 90,60 C94,60 97,58 99,55" fill="none" stroke="#0f172a" stroke-width="2.5" stroke-linecap="round"/>

  <!-- e -->
  <path d="M104,46 C104,46 120,46 120,46 C120,39 115,34 110,35 C105,36 102,41 103,48 C104,55 109,60 115,59 C118,59 120,57 122,54" fill="none" stroke="#0f172a" stroke-width="2.5" stroke-linecap="round"/>

  <!-- m -->
  <path d="M127,58 C127,58 127,40 127,36 C127,36 133,33 136,39 C136,39 140,33 146,35 C152,37 152,48 152,58" fill="none" stroke="#0f172a" stroke-width="2.5" stroke-linecap="round"/>

  <!-- Underline flourish -->
  <path d="M8,66 C50,70 110,64 155,68 C163,69 167,66 164,62" fill="none" stroke="url(#gr)" stroke-width="2" stroke-linecap="round"/>
  <path d="M164,62 C168,58 170,64 166,67" fill="none" stroke="url(#gr)" stroke-width="2" stroke-linecap="round"/>

  <!-- STUDIO -->
  <text x="84" y="78" text-anchor="middle" fill="#94a3b8" font-size="9" letter-spacing="5" font-family="system-ui, sans-serif">STUDIO</text>
</svg>
